<svg width="80" height="90" viewBox="0 0 80 90" fill="none" xmlns="http://www.w3.org/2000/svg"><rect opacity="0.3" y="38" width="80" height="40" rx="4" fill="#52656D"/><path d="M8.43311 39.7366C8.43311 34.2001 12.9213 29.7119 18.4578 29.7119H60.8999C66.4364 29.7119 70.9247 34.2001 70.9247 39.7366V66.3203C70.9247 68.5349 69.1294 70.3302 66.9148 70.3302H12.443C10.2284 70.3302 8.43311 68.5349 8.43311 66.3203V39.7366Z" fill="#37464F"/><path d="M6.26624 25.2274C6.26624 19.6909 10.7545 15.2027 16.291 15.2027H63.4071C68.9436 15.2027 73.4318 19.6909 73.4318 25.2274V55.051H6.26624V25.2274Z" fill="#37464F"/><rect x="3.25385" y="42.7716" width="73.8089" height="11.5284" fill="#5F7888"/><path d="M67.1652 25.477H75.0616C76.1689 25.477 77.0666 26.3746 77.0666 27.4819V45.777H67.1652V25.477Z" fill="#5F7888"/><path d="M3.25385 27.4819C3.25385 26.3746 4.15149 25.477 5.25879 25.477H11.6515C12.7588 25.477 13.6564 26.3746 13.6564 27.4819V43.7721C13.6564 44.8794 12.7588 45.777 11.6515 45.777H5.25879C4.15149 45.777 3.25385 44.8794 3.25385 43.7721V27.4819Z" fill="#5F7888"/><path d="M6.26624 14.0049C6.26624 12.8976 7.16388 12 8.27118 12H18.7971C19.9044 12 20.8021 12.8976 20.8021 14.0049V34.5027H6.26624V14.0049Z" fill="#5F7888"/><path d="M58.8967 14.0049C58.8967 12.8976 59.7944 12 60.9017 12H71.4276C72.5349 12 73.4326 12.8976 73.4326 14.0049V34.5027H58.8967V14.0049Z" fill="#5F7888"/><path d="M6.39807 24.1446L20.7462 20.5723V33.2222L6.39807 33.0464V24.1446Z" fill="#6F8B9D"/><path d="M6.26624 31.725H20.8021V46.2197H6.26624V31.725Z" fill="#4F6471"/><path d="M6.26624 52.5436C6.26624 51.4363 7.16388 50.5386 8.27118 50.5386H18.7971C19.9044 50.5386 20.8021 51.4363 20.8021 52.5436V70.3903C20.8021 71.4976 19.9044 72.3953 18.7971 72.3953H8.27118C7.16388 72.3953 6.26624 71.4976 6.26624 70.3903V52.5436Z" fill="#4F6471"/><path d="M57.5791 52.5436C57.5791 51.4363 58.4767 50.5386 59.584 50.5386H70.11C71.2173 50.5386 72.1149 51.4363 72.1149 52.5436V70.3903C72.1149 71.4976 71.2173 72.3953 70.11 72.3953H59.584C58.4767 72.3953 57.5791 71.4976 57.5791 70.3903V52.5436Z" fill="#4F6471"/><rect x="58.8967" y="31.725" width="14.5358" height="14.4947" fill="#4F6471"/><rect x="37.0928" y="49.9128" width="5.51359" height="9.71144" fill="#C4C4C4"/><rect x="6.26624" y="55.3079" width="14.5358" height="4.88705" fill="#375161"/><rect x="57.5791" y="55.3079" width="14.5358" height="4.88705" fill="#375161"/><rect x="20.7974" y="63.818" width="36.7782" height="2.63149" fill="#293D49"/><rect x="20.7974" y="23.6395" width="38.0939" height="2.63149" fill="#293D49"/><rect opacity="0.92" x="20.7974" y="55.3079" width="36.7782" height="4.88705" fill="#293D49"/><rect opacity="0.92" x="20.7974" y="35.3047" width="38.0939" height="7.46567" fill="#293D49"/><path d="M3.25385 46.2159H77.0628V55.3008C77.0628 56.4081 76.1651 57.3058 75.0578 57.3058H5.25879C4.15149 57.3058 3.25385 56.4081 3.25385 55.3008V46.2159Z" fill="#4F6471"/><rect x="29.0696" y="38.383" width="20.9266" height="18.2007" rx="3.00742" fill="#5F7888"/><path d="M33.7455 38.383H32.077C30.416 38.383 29.0696 39.7294 29.0696 41.3904V53.5763C29.0696 55.2372 30.416 56.5837 32.077 56.5837H33.081C33.6063 56.5837 34.0291 56.1518 34.0178 55.6265L33.7455 42.9729V38.383Z" fill="#6F8B9D"/><rect x="29.0696" y="42.8631" width="20.9266" height="17.9407" rx="3.00742" fill="#4F6471"/><ellipse cx="39.1879" cy="49.7057" rx="3.94723" ry="3.54472" fill="#2A3E4A"/><path d="M38.2913 51.6033C38.6607 50.8645 39.7151 50.8645 40.0845 51.6033L41.8808 55.1957C42.2141 55.8622 41.7294 56.6465 40.9842 56.6465H37.3916C36.6463 56.6465 36.1617 55.8622 36.495 55.1957L38.2913 51.6033Z" fill="#2A3E4A"/><path d="M58.9297 16.3848L73.4005 12.8931V20.8578L58.9297 24.3496V16.3848Z" fill="#6F8B9D"/><rect x="20.6291" y="42.358" width="8.44234" height="3.80299" fill="#6F8B9D"/></svg>